<svg width="128" height="128" viewBox="0 0 128 128" fill="none" xmlns="http://www.w3.org/2000/svg">
<path fill-rule="evenodd" clip-rule="evenodd" d="M95.6021 49.8839C96.787 50.7724 97.4844 52.1671 97.4844 53.6482V55.4525C97.4844 58.0511 99.591 60.1577 102.19 60.1577H116.462C119.06 60.1577 121.167 62.2643 121.167 64.8629V73.8021C121.167 76.4007 119.06 78.5073 116.462 78.5073H97.4844L78.8226 76.54C77.0441 76.3525 75.3131 77.1894 74.3555 78.6998L72.8808 81.0257C72.7327 81.2592 72.6445 81.5256 72.624 81.8013V115.051C72.624 117.65 70.5174 119.756 67.9188 119.756H60.0773C57.4787 119.756 55.3721 117.65 55.3721 115.051V81.8013C55.3458 81.4359 55.2294 81.0827 55.0333 80.7733L53.7196 78.7005C52.7621 77.1898 51.0308 76.3525 49.252 76.5401L30.5908 78.5073H11.6134C9.0148 78.5073 6.9082 76.4007 6.9082 73.8021V64.8629C6.9082 62.2643 9.0148 60.1577 11.6134 60.1577H25.8856C28.4842 60.1577 30.5908 58.0511 30.5908 55.4525V53.6482C30.5908 52.1671 31.2882 50.7724 32.4731 49.8839L39.0424 44.9575C40.2373 44.0615 41.7866 43.7859 43.2171 44.215L52.8289 47.098C53.2674 47.2296 53.7228 47.2964 54.1807 47.2964H73.8945C74.3524 47.2964 74.8078 47.2296 75.2463 47.098L84.8581 44.215C86.2886 43.7859 87.8379 44.0615 89.0328 44.9575L95.6021 49.8839Z" fill="#8055F8"/>
<path d="M111.365 66.7427C111.365 40.5833 90.159 19.3769 63.9996 19.3769C37.8401 19.3769 16.6337 40.5833 16.6337 66.7427C16.6337 81.4033 23.2845 94.5032 33.7636 103.204C36.8676 105.782 40.5664 106.988 45.5788 107.451C51.0761 107.958 56.45 107.521 63.9996 107.521C71.5491 107.521 76.923 107.958 82.4204 107.451C87.4328 106.988 91.1316 105.782 94.2355 103.204C104.715 94.5032 111.365 81.4033 111.365 66.7427ZM127.677 66.7427C127.677 86.4584 118.707 104.086 104.656 115.754C98.1435 121.161 90.8571 123.053 83.9194 123.694C77.4667 124.289 69.9256 123.833 63.9996 123.833C58.0735 123.833 50.5324 124.289 44.0797 123.693C37.142 123.053 29.8556 121.161 23.3435 115.754C9.29219 104.086 0.322266 86.4584 0.322266 66.7427C0.322266 31.5747 28.8316 3.06543 63.9996 3.06543C99.1676 3.06543 127.677 31.5747 127.677 66.7427Z" fill="#8055F8"/>
</svg>
