<svg width="128" height="128" viewBox="0 0 128 128" fill="none" xmlns="http://www.w3.org/2000/svg">
<path d="M93.8369 2.73269C97.1246 2.50304 100.113 4.63947 100.96 7.82449L114.488 58.7005C114.823 59.9581 114.794 61.2851 114.404 62.5266L95.9326 121.349L95.8232 121.668C94.6608 124.826 91.3716 126.68 88.0684 126.038L87.7383 125.966L20.2881 109.445C17.3084 108.715 15.1853 106.104 15.0557 103.063L15.0488 102.768V14.6477C15.0488 11.0369 17.8423 8.04098 21.4443 7.78933L93.8369 2.73269ZM29.0488 21.2923V97.176L84.5771 110.778L100.428 60.302L88.9414 17.1077L29.0488 21.2923Z" fill="#8055F8"/>
<circle cx="51.2715" cy="39.9102" r="9" fill="#8055F8"/>
<circle cx="51.2715" cy="86.9102" r="9" fill="#8055F8"/>
<circle cx="75.2715" cy="61.9102" r="9" fill="#8055F8"/>
</svg>
